<svg xmlns="http://www.w3.org/2000/svg" viewBox="0 0 48 48" fill="none" aria-hidden="true">
  <path d="M24 40 C14 32 10 26 10 19.5 C10 14.5 14 11 19 11 C21.5 11 23.5 12.5 24 12.5 C24.5 12.5 26.5 11 29 11 C34 11 38 14.5 38 19.5 C38 26 34 32 24 40 Z" stroke="#7C6FF7" stroke-width="2.6" stroke-linejoin="round"/>
  <circle cx="24" cy="20" r="4.2" stroke="#A78BFA" stroke-width="2.2"/>
  <path d="M24 17.5 C24 17.5 22.2 19.2 22.2 21 C22.2 22.2 23 23 24 23 C25 23 25.8 22.2 25.8 21 C25.8 19.2 24 17.5 24 17.5 Z" fill="#F4F0E8"/>
</svg>
